<?xml version="1.0" encoding="utf-8"?>
<svg xmlns="http://www.w3.org/2000/svg" x="0px" y="0px" width="480px" height="480px" viewBox="0 0 480 480" style=" fill:#000000;" xmlns:bx="https://boxy-svg.com">
  <g id="surface1" transform="matrix(9.999978, 0, 0, 9.999978, 0.000109, -0.0094)">
    <path style="fill-rule: evenodd; fill: rgb(17, 127, 117);" d="M 22.902 3.285 C 23.582 2.906 24.418 2.906 25.098 3.285 C 28.449 5.168 38.547 10.836 41.902 12.719 C 42.582 13.102 43 13.805 43 14.566 C 43 18.332 43 29.668 43 33.434 C 43 34.195 42.582 34.898 41.902 35.281 C 38.547 37.164 28.453 42.832 25.098 44.715 C 24.418 45.094 23.582 45.094 22.902 44.715 C 19.707 42.922 10.401 37.697 6.623 35.576 C 6.433 35.47 6.258 35.371 6.098 35.281 C 5.418 34.898 5 34.195 5 33.434 C 5 29.668 5 18.332 5 14.566 C 5 13.805 5.418 13.102 6.098 12.719 C 9.449 10.836 19.551 5.168 22.902 3.285 Z"/>
    <path style="fill-rule: evenodd; fill: rgb(96, 209, 195);" d="M 5.304688 34.402344 C 5.039063 34.046875 5 33.710938 5 33.253906 C 5 29.511719 5 18.242188 5 14.496094 C 5 13.738281 5.417969 13.039063 6.09375 12.660156 C 9.4375 10.789063 19.5 5.152344 22.84375 3.28125 C 23.519531 2.902344 24.4375 2.910156 25.113281 3.289063 C 28.457031 5.160156 38.484375 10.746094 41.828125 12.617188 C 42.097656 12.769531 42.304688 12.953125 42.488281 13.195313 Z "/>
    <path style=" fill-rule:evenodd;fill:#FFFFFF;" d="M 24 10 C 31.726563 10 38 16.273438 38 24 C 38 31.726563 31.726563 38 24 38 C 16.273438 38 10 31.726563 10 24 C 10 16.273438 16.273438 10 24 10 Z M 24 17 C 27.863281 17 31 20.136719 31 24 C 31 27.863281 27.863281 31 24 31 C 20.136719 31 17 27.863281 17 24 C 17 20.136719 20.136719 17 24 17 Z "/>
    <path style="fill-rule: evenodd; fill: rgb(21, 157, 144);" d="M 42.484375 13.203125 C 43 13.6875 42.992188 14.414063 42.992188 14.988281 C 42.992188 18.785156 42.960938 29.578125 43 33.371094 C 43.003906 33.769531 42.871094 34.1875 42.675781 34.5 L 23.59375 24 Z "/>
  </g>
  <text style="fill: rgb(255, 255, 255); font-family: D2Coding; font-size: 52.3px; font-weight: 700; letter-spacing: 2px; text-transform: uppercase; white-space: pre; text-anchor: middle;" x="351.729" y="257.932">dasae</text>
  <defs>
    <bx:grid x="0" y="0" width="96" height="96"/>
  </defs>
</svg>